<svg t="1757829468090" class="icon" viewBox="0 0 1379 1024" version="1.1" xmlns="http://www.w3.org/2000/svg" p-id="1452" width="200" height="200"><path d="M1022.75 1024l0-60.75 273.625 0c11.75 0 21.125-9.5 21.25-21.125L1317.625 81.875c0-11.75-9.5-21.125-21.25-21.125L756.5 60.75 756.5 0l539.875 0c45.25 0 82 36.625 82.125 81.875l0 860.25c-0.125 45.25-36.875 81.875-82.125 81.875L1022.75 1024 1022.75 1024zM811.875 1015.75l0-3.125c-1.5-205.875-169.5-371.5-375.375-370-203.75 1.5-368.625 166.25-370 370l0 3.125L0 1015.75l0-3.125c0.375-196.25 131.25-368.125 320.375-420.75C165.125 526.25 92.5 347.375 158.125 192.125 223.75 37 402.625-35.625 557.875 30 713 95.625 785.625 274.5 720 429.625c-30.875 73.125-89.125 131.25-162.125 162.25 189 52.625 320 224.5 320.375 420.75l0 3.125L811.875 1015.75 811.875 1015.75 811.875 1015.75 811.875 1015.75zM439.125 74.5C307.75 74.875 201.75 181.75 202.125 313.125 202.625 444.375 309.5 550.5 440.75 550c131-0.5 237-106.75 237-237.75C677.375 180.75 570.625 74.375 439.125 74.5L439.125 74.5 439.125 74.5 439.125 74.5zM899.25 649.25l0-68.5 321 0 0 68.375L899.25 649.25 899.25 649.25 899.25 649.25zM885.25 442.5l0-68.25 335 0L1220.25 442.5 885.25 442.5 885.25 442.5 885.25 442.5zM865.5 180.25l354.75 0 0 68.375L865.5 248.625 865.5 180.25 865.5 180.25z" p-id="1453"></path></svg>